<?xml version="1.0" encoding="UTF-8"?>
<svg width="388px" height="286px" viewBox="0 0 388 286" version="1.1" xmlns="http://www.w3.org/2000/svg" xmlns:xlink="http://www.w3.org/1999/xlink">
    <title>Group 42</title>
    <defs>
        <linearGradient x1="57.1888301%" y1="178.794034%" x2="49.3304267%" y2="37.9802499%" id="linearGradient-1">
            <stop stop-color="#F9FCFF" stop-opacity="0.95" offset="50%"></stop>
            <stop stop-color="#F3FAFF" stop-opacity="0.95" offset="100%"></stop>
        </linearGradient>
        <linearGradient x1="50.0022394%" y1="114.679284%" x2="50.0022394%" y2="23.9745106%" id="linearGradient-2">
            <stop stop-color="#FFFFFF" offset="0%"></stop>
            <stop stop-color="#E7F6FD" offset="100%"></stop>
        </linearGradient>
        <linearGradient x1="50%" y1="-14.6854535%" x2="50%" y2="76.0220282%" id="linearGradient-3">
            <stop stop-color="#F8FCFF" stop-opacity="0.95" offset="0%"></stop>
            <stop stop-color="#E8F6FD" stop-opacity="0.95" offset="100%"></stop>
        </linearGradient>
    </defs>
    <g id="Page-1" stroke="none" stroke-width="1" fill="none" fill-rule="evenodd">
        <g id="Referral-Portal---Landing-Page-Option-B" transform="translate(-526.000000, -281.000000)">
            <g id="Group-42" transform="translate(526.000000, 281.000000)">
                <g id="Group-41" transform="translate(0.000000, 119.000000)" fill="#DCE6EF" fill-rule="nonzero">
                    <path d="M361.310642,122.937262 C357.99945,114.408545 355.527094,105.393735 352.833992,95.8486421 C351.023874,89.4410565 348.065876,82.2380465 341.708389,80.2052952 C335.527498,78.2167342 328.860966,82.326427 325.064133,87.5850662 C321.2673,92.8437054 319.324734,99.2512909 316.101841,104.863452 C310.185846,115.071399 299.76663,119.313662 291.113383,110.387233 C278.795751,97.5720616 273.232949,80.161105 265.418537,64.5619484 C259.723288,53.2492456 254.999322,39.9479818 247.847148,29.5190839 C236.942291,13.6105956 221.975706,0 202.108557,0 C163.080647,0 142.109768,45.7810941 134.03046,77.7748317 C132.176193,85.1987929 116.282474,165.271517 112,165.227327 C112.044149,165.227327 361.178194,166.994937 387.005488,165.183137 C387.888472,165.138947 388.329964,164.034191 387.711875,163.371337 C385.504414,160.940873 381.972477,154.533288 381.089492,153.693673 C371.420813,144.325341 365.637265,134.073204 361.310642,122.937262 Z" id="Path"></path>
                    <path d="M161,164.955971 C154.321154,139.815244 147.598077,114.674518 139.769231,90.3703478 C135.346154,76.6332083 130.436538,62.9841274 123.669231,52.0208333 C116.901923,41.0575393 107.878846,32.9561493 98.8557692,33 C84.9673077,35.6859655 75.9884615,49.3350464 70.1057692,64.4811233 C66.2576923,74.3877143 64.3557692,86.4517407 61.6576923,96.9307125 C57.8980769,111.372321 55.9076923,127.090778 48.6980769,139.727186 C43.6557692,148.577074 35.8711538,146.33158 30.6519231,138.362278 C27.7769231,133.959348 25.7423077,128.763892 22.4692308,124.757226 C19.2403846,120.75056 14.1096154,118.152832 10.0403846,120.662502 C5.79423077,123.26023 4.55576923,129.820595 3.98076923,135.588432 C3.14038462,144.130115 2.38846154,152.231505 1.01730769,159.980661 C0.707692308,161.653774 0.398076923,163.326887 0,165 L161,165 L161,164.955971 Z" id="Path"></path>
                </g>
                <g id="Group-37-Copy" transform="translate(93.000000, 99.000000)" fill-rule="nonzero">
                    <path d="M64.4121951,183.998683 L64.5212533,183.998683 C64.9307064,184.003885 65.3235063,183.834683 65.6038998,183.532323 C65.8842934,183.229963 66.0265202,182.822223 65.9959096,182.408499 L60.1257345,123 L55,123.480418 L63.4306715,183.215602 C63.5179525,183.688945 63.9375723,184.023727 64.4121951,183.998683 Z" id="Path" fill="#8CB4F4"></path>
                    <path d="M9.5844899,183.998607 L9.47561271,183.998607 C9.06860799,184.003594 8.67807848,183.835689 8.39846713,183.535496 C8.11885577,183.235303 7.97562174,182.830157 8.00340374,182.418034 L13.882772,123 L19,123.480417 L10.5691184,183.19631 C10.4902185,183.679252 10.066163,184.024782 9.5844899,183.998607 L9.5844899,183.998607 Z" id="Path" fill="#8CB4F4"></path>
                    <path d="M106.412479,183.998683 L106.52154,183.998683 C106.929682,184.005139 107.321748,183.837685 107.602154,183.537147 C107.88256,183.23661 108.025542,182.830602 107.996241,182.418108 L102.125889,123 L97,123.480418 L105.430925,183.215602 C105.518209,183.688945 105.937841,184.023727 106.412479,183.998683 Z" id="Path" fill="#8CB4F4"></path>
                    <path d="M10.7291156,115 L0.192562002,64.050996 C-1.14845391,57.1561008 4.68975464,50.8479054 12.2569158,51.0027941 L32.5589389,51.4721539 C39.5621881,51.6284056 45.6513457,56.2218047 47.5974744,62.8165798 L63,115 L10.7291156,115 Z" id="Path" fill="#8CB4F4"></path>
                    <path d="M17.7330529,114.985919 L7.19536196,64.0373332 C5.84462158,57.1424946 11.6738806,50.834351 19.2514384,51.0033191 L39.5556529,51.472675 C46.5596581,51.6289254 52.649473,56.2222869 54.5958118,62.8170078 L70,115 L17.7330529,114.985919 Z" id="Path" fill="#8CB4F4"></path>
                    <path d="M15.663944,115 L92.336056,115 C94.3595964,115 96,116.597529 96,118.568182 L96,124 L15.663944,124 C13.6404036,124 12,122.402471 12,120.431818 L12,118.568182 C12,116.597529 13.6404036,115 15.663944,115 L15.663944,115 Z" id="Path" fill="#8CB4F4" transform="translate(54.000000, 119.500000) rotate(180.000000) translate(-54.000000, -119.500000) "></path>
                    <rect id="Rectangle" fill="#8CB4F4" transform="translate(75.000000, 119.500000) rotate(-180.000000) translate(-75.000000, -119.500000) " x="47" y="115" width="56" height="9" rx="4.5"></rect>
                    <path d="M78.7887725,103.2673 C74.5421629,111.009161 69.2058396,114 69.2058396,114 L47,114 C47,114 82.0251754,97.3640696 78.7887725,103.2673 Z" id="Path" fill="#233862"></path>
                    <path d="M106.143589,179.275549 C105.8975,181.718358 109.241411,182.338832 113.116102,182.578227 C116.990792,182.817623 115.813427,183.604207 121.121222,184.639958 C126.429018,185.67571 128.571437,184.219795 128.967109,183.496724 C129.314528,182.856708 126.853641,181.820956 124.233521,180.653293 L123.239515,180.203816 C120.291276,178.8505 118.65551,176.143867 116.368333,173.622888 C114.206612,171.23382 112.208951,163.641568 112.208951,163.641568 L105,162 C105,162 106.954234,168.839867 107.629771,171.771238 C108.025443,173.48609 107.393333,175.391482 106.838427,176.842511 C106.500246,177.618357 106.266543,178.436689 106.143589,179.275549 L106.143589,179.275549 Z" id="Path" fill="#FFB27D"></path>
                    <path d="M113.025246,182.640527 C116.907542,182.869004 115.738,183.640114 121.076156,184.64922 C126.414312,185.658327 128.568986,184.239866 128.966921,183.535395 C129.316328,182.911843 126.841364,181.902736 124.206257,180.765111 L124.162581,180.80795 C121.512366,181.525796 118.713357,181.525796 116.063142,180.80795 C112.535107,179.827403 109.138098,177.718751 106.711664,177 C106.370715,177.758906 106.135659,178.559442 106.012851,179.379969 C105.765354,181.793258 109.128393,182.40729 113.025246,182.640527 Z" id="Path" fill="#0F2549"></path>
                    <path d="M96.1524845,97.1795954 C92.3125782,94.4977327 66.7724017,89.7225931 53.7503196,88.3413151 L39.3506711,76 C39.3506711,76 27.0965703,93.9471202 27,107.67446 C26.9525738,114.077704 29.9381009,114.713756 29.9381009,114.713756 C29.9381009,114.713756 76.0841744,115.055516 78.1049251,115.259622 C81.4168442,115.596635 85.7847376,123.756143 86.8791109,131.184665 C87.9734842,138.613188 107.211415,168.830423 107.211415,168.830423 C107.211415,168.830423 111.224117,170.102528 113.081671,169.993355 C115.078422,169.879435 116,169.219649 116,169.219649 C116,169.219649 104.854672,103.222093 96.1524845,97.1795954 Z" id="Path" fill="#233862"></path>
                    <path d="M95.1621887,179.275549 C94.911426,181.718358 98.2533215,182.338832 102.130499,182.578227 C106.007676,182.817623 104.821376,183.604207 110.125972,184.639958 C115.430568,185.67571 117.571695,184.219795 117.967129,183.496724 C118.314339,182.856708 115.854935,181.820956 113.236394,180.653293 L112.242988,180.203816 C109.296526,178.8505 107.661746,176.143867 105.380769,173.622888 C103.21553,171.23382 101.219073,163.641568 101.219073,163.641568 L94,162 C94,162 95.9578781,168.839867 96.6281862,171.771238 C97.0236197,173.48609 96.3918905,175.391482 95.8373191,176.842511 C95.5038426,177.618548 95.2766943,178.437146 95.1621887,179.275549 L95.1621887,179.275549 Z" id="Path" fill="#FFB27D"></path>
                    <path d="M103.027072,182.640527 C106.910103,182.869004 105.735486,183.640114 111.074654,184.64922 C116.413822,185.658327 118.568904,184.239866 118.966915,183.535395 C119.316388,182.911843 116.840955,181.902736 114.205348,180.765111 L114.161664,180.80795 C111.511012,181.526272 108.711341,181.526272 106.06069,180.80795 C102.531985,179.827403 99.1343329,177.718751 96.7074384,177 C96.3659342,177.758376 96.1323831,178.559198 96.0133465,179.379969 C95.7609495,181.793258 99.1246253,182.40729 103.027072,182.640527 Z" id="Path" fill="#233862"></path>
                    <path d="M84.1476606,97.1938354 C80.7877386,94.8632255 70.7079725,93.0594948 59.5866305,91.7209368 C56.5108224,91.3495641 53.9852162,89.1408038 53.2363779,86.167345 L53.2363779,86.167345 L27.3505785,76 C27.3505785,76 15.0964628,93.9471202 15,107.67446 C14.9572661,114.077704 17.9379969,114.713756 17.9379969,114.713756 C17.9379969,114.713756 64.0841262,115.055516 66.1096792,115.259622 C69.4168024,115.596635 73.789501,123.756143 74.8790757,131.184665 C75.9686504,138.613188 95.2114039,168.830423 95.2114039,168.830423 C95.2114039,168.830423 99.2241108,170.102528 101.081668,169.993355 C103.078421,169.879435 104,169.219649 104,169.219649 C104,169.219649 92.8498587,103.236333 84.1476606,97.1938354 Z" id="Path" fill="#2B478B"></path>
                    <path d="M50.4754916,2.29796338 C46.9627492,0.455561309 41.6201572,0.204539947 40.7526378,0.0908698964 C30.3803296,-1.30632448 24.1038507,13.8023198 23.7435694,18.3491218 C23.0656717,26.7749143 18.6048207,28.0631749 12.3236012,33.3393597 C-0.267281152,43.9201469 3.42560188,56.2154574 10.3088704,60.7812045 C14.4426239,63.5234944 21.7193575,60.7812045 21.7193575,60.7812045 C21.8236494,60.8522482 41.6296383,49.7173195 51.3998975,44.3464096 C66.0339539,42.267195 59.4303774,6.99632548 50.4754916,2.29796338 Z" id="Path" fill="#233862"></path>
                    <path d="M47.890999,37.622027 C47.9383908,37.6461398 43.2750446,39.8018278 39.9102319,38.6733469 C36.7444644,37.6123818 33.9578308,32.7608782 34.0004833,32.751233 C35.3748434,32.5486852 36.7728994,31.1694306 37.1615116,23 L37.7728649,23.1543222 L48,25.792267 C48,25.792267 47.5971703,29.0860811 47.4312993,32.2062828 C47.2891241,34.8201148 47.3175591,37.30856 47.890999,37.622027 Z" id="Path" fill="#FFB27D"></path>
                    <path d="M49,27.0408163 C49,27.0408163 49,27.755102 48.603425,31 C42.5506985,29.4285714 39.8787742,27.3673469 38,25 L49,27.0408163 Z" id="Path" fill="#ED975D"></path>
                    <path d="M50.4378672,26.7381003 C50.4378672,26.7381003 37.4834412,28.9715577 36.2946288,20.393926 C35.1058163,11.8162944 32.6329049,6.32892061 40.8547682,4.5383039 C49.0766315,2.74768719 51.1366348,5.77055626 52.1983986,8.5286836 C53.2601624,11.286811 53.7683571,25.9342482 50.4378672,26.7381003 Z" id="Path" fill="#FFB27D"></path>
                    <path d="M50,5.52324192 C50,5.52324192 44.0909091,15.2583071 38.8454545,17.5659839 C33.6,19.8736606 31,18.7031689 31,18.7031689 C32.5782967,15.9853208 33.6056464,12.9566801 34.0181818,9.80552866 C34.1961737,8.30075894 35.1390885,7.01507629 36.4818182,6.44631261 C40.2545455,4.85710842 47.5590909,2.35910782 50,5.52324192 Z" id="Path" fill="#233862"></path>
                    <path d="M45,6.52628699 C45,6.52628699 48.4004628,8.32193228 49.8009166,10.0024721 C51.2013704,11.6830119 52.7092072,16.0247902 52.5973499,18 C52.5973499,18 54.2752098,8.52912212 50.7807868,5.2739395 C47.1029178,1.8023586 45,6.52628699 45,6.52628699 Z" id="Path" fill="#233862"></path>
                    <path d="M58.9974111,58.8595215 C58.5789502,85.7841825 58.8819736,80.162499 55.8276897,82.7203418 C55.0917756,83.3377521 53.0283303,83.7044846 50.3059292,83.8762453 C41.7491243,84.4240229 26.7037698,83.0638633 26.1313922,81.5551539 C24.1593349,76.2723497 25.5493948,74.6336591 23.9044104,66.5469764 C23.7312542,65.68972 23.5196187,64.7612834 23.2695042,63.7616666 C21.8986838,58.1910471 20.5615327,56.3341739 25.4339573,47.3979718 C29.8494418,39.3159313 35.0537492,32.7518846 35.4577804,33.0072046 C47.1121583,39.6826637 47.5113796,34.0841911 47.5113796,34.0841911 C47.5113796,34.0841911 59.1994268,45.7175015 58.9974111,58.8595215 Z" id="Path" fill="#FFFFFF"></path>
                    <path d="M47,34 C47,34 59.4284819,36.0288782 60.8968469,41.1998672 L71,76.7895723 C71,76.7895723 64.6454375,77.8883472 61.7137189,75.0643029 C58.7820004,72.2402586 51.5003132,48.8816532 51.5003132,48.8816532 L47,34 Z" id="Path" fill="#FFFFFF"></path>
                    <path d="M50,83.8704978 C41.5733285,84.443716 26.7567863,83.020386 26.1931135,81.4416071 C24.2510475,75.9134518 25.6199672,74.198655 24,65.7363998 L28.0641283,54 C28.0641283,54 27.3915103,67.0722897 31.1524868,70.5164567 C34.9134633,73.9606237 46.5421753,77.1570439 48.3705593,80.0279927 C49.1590677,81.1840355 49.7131695,82.490704 50,83.8704978 L50,83.8704978 Z" id="Path" fill="#EBF3FF"></path>
                    <path d="M40,78.2589836 C40,78.2589836 47.9047189,76.4475924 49.1838871,77.1702958 C50.4630553,77.8929992 53.5753977,80.5197481 53.9672555,81.4370255 C54.3591134,82.3543029 51.12516,80.7421184 50.0757016,80.4502574 C49.3955805,80.2649488 47.6029433,80.9135288 46.715633,81.2100225 C42.9862272,82.4886516 40.6981376,81.8308062 40.6981376,81.8308062 L40,78.2589836 Z" id="Path" fill="#FFB27D"></path>
                    <path d="M35.6636363,32 C35.6636363,32 23.8430441,32.6756777 19.959951,37.9785823 C14.4922133,45.4343358 3.65191183,77.2564236 9.86676423,81.4968834 C16.8620422,86.2732254 41.7119344,82.7457221 41.7119344,82.7457221 C41.7119344,82.7457221 42.5399469,78.9619272 41.3883433,77.153907 C40.2367398,75.3458867 21.5208022,72.3402861 20.6785136,71.4875343 C19.836225,70.6347825 31.4664695,55.0103191 31.4664695,52.475363 C31.4664695,49.9404068 35.6636363,32 35.6636363,32 Z" id="Path" fill="#FFFFFF"></path>
                    <path d="M51,81 C51,81 53.1337209,82.6511826 53.8372093,82.8497425 C54.1933097,82.9644123 54.5969952,83.0152057 55,82.9960498 L53.5639535,81.4424055 L51,81 Z" id="Path" fill="#FFB27D"></path>
                    <path d="M50,78 L55,79.7585297 C54.8020847,79.9385681 54.4860265,80.0278232 54.1721235,79.9923226 C53.4313483,79.8979674 52.7046533,79.7527448 52.0018709,79.5586198 L50,78 Z" id="Path" fill="#FFB27D"></path>
                    <path d="M69,83 L45,83 C45,81.8954305 45.8649761,81 46.9319783,81 L69,81 L69,83 Z" id="Path" fill="#FFB531"></path>
                    <polygon id="Path" fill="#FFB531" points="68.8918495 58 105 58 96.338558 83 60 83"></polygon>
                    <polygon id="Path" fill="#FFC957" points="105 58 96.338558 83 60 83 68.8918495 58"></polygon>
                    <path d="M86.9316262,72.0001201 C86.647414,73.134393 85.6820044,73.9447064 84.5506195,73.9986104 C84.0663832,74.0198891 83.6024908,73.7957522 83.3074278,73.3979427 C83.0123649,73.0001332 82.9231355,72.4785409 83.0683009,72.0001201 C83.3519436,70.8676605 84.3147029,70.0578149 85.4441426,70.0016299 C85.9292714,69.9785394 86.3947484,70.2019171 86.6910483,70.6000072 C86.9873483,70.9980974 87.0771574,71.5207674 86.9316262,72.0001201 L86.9316262,72.0001201 Z" id="Path" fill="#FFFFFF"></path>
                    <rect id="Rectangle" fill="#182D4F" x="37" y="83" width="161" height="6" rx="3"></rect>
                    <path d="M199.661348,184.986244 L199.726194,184.986244 C200.514069,184.894446 201.080183,184.165542 200.990696,183.358124 L187.095065,87 L182,87.1518946 L198.336631,184.013169 C198.447533,184.652073 199.035313,185.083828 199.661348,184.986244 Z" id="Path" fill="#182D4F"></path>
                    <path d="M32.3394836,184.988886 L32.2746404,184.988886 C31.8952723,184.947245 31.5479894,184.751593 31.3103884,184.445645 C31.0727874,184.139697 30.9646713,183.748954 31.0101974,183.360722 L44.9051749,87 L50,87.1518987 L33.6409798,184.020532 C33.530141,184.648411 32.9563317,185.075343 32.3394836,184.988886 Z" id="Path" fill="#182D4F"></path>
                    <path d="M65.3395392,184.989456 L65.2700645,184.989456 C64.8915367,184.946641 64.5454262,184.750489 64.3088014,184.444675 C64.0721765,184.138861 63.9646833,183.748777 64.0102572,183.361283 L77.905191,87 L83,87.1518996 L66.6410313,184.021096 C66.528041,184.64759 65.9557637,185.073386 65.3395392,184.989456 Z" id="Path" fill="#182D4F"></path>
                </g>
                <g id="Group-29-Copy" transform="translate(1.000000, 61.000000)" fill-rule="nonzero">
                    <rect id="Rectangle" stroke="#C8DBF4" stroke-width="0.5" fill="url(#linearGradient-1)" opacity="0.95" x="1.07713838e-13" y="14.6122993" width="76.740364" height="76.3086739" rx="8.919"></rect>
                    <rect id="Rectangle" fill="#96BFE6" x="19.5932844" y="73.0614963" width="35.9210214" height="1.62358881"></rect>
                    <rect id="Rectangle" fill="#96BFE6" x="24.4916055" y="78.7440571" width="25.3079924" height="1.62358881"></rect>
                    <rect id="Rectangle" fill="#4598E6" x="34.2882477" y="64.1317578" width="6.53109481" height="1.62358881"></rect>
                    <path d="M55.4202479,21.1066545 L55.4202479,22.1786661 L61.7805382,22.1786661 L61.7805382,28.11231 L62.8617875,28.11231 L62.8617875,21.1066545 L55.4202479,21.1066545 Z M12.2458028,28.1162658 L13.3230769,28.1162658 L13.3230769,22.1826219 L19.6833672,22.1826219 L19.6833672,21.1066545 L12.2458028,21.1066545 L12.2458028,28.1162658 Z M61.776563,58.7417796 L61.776563,64.6754234 L55.4162728,64.6754234 L55.4162728,65.7474351 L62.8538372,65.7474351 L62.8538372,58.7417796 L61.776563,58.7417796 Z M13.3350025,58.7417796 L12.2458028,58.7417796 L12.2458028,65.7553466 L19.679392,65.7553466 L19.679392,64.6754234 L13.3191017,64.6754234 L13.3350025,58.7417796 Z" id="Shape" fill="#4598E6"></path>
                    <path d="M39.9155917,0.677798709 C39.9155917,0.677798709 36.0507749,-1.73981597 32.5462376,2.55683586 C29.0417002,6.85348768 30.3149609,10.9865715 31.0437081,14.8443824 C31.7724554,18.7021933 35.2810868,27.4271492 33.7867455,31.2849601 C32.2924042,35.1427709 34.1961541,37.1494709 34.1961541,37.1494709 C34.1961541,37.1494709 46.1877309,40.1415683 44.7875536,22.5679831 C43.3873763,4.99439785 39.9155917,0.677798709 39.9155917,0.677798709 Z" id="Path" fill="#163342"></path>
                    <path d="M47.0579549,40.038988 C47.0579549,40.038988 50.3824711,49.1488027 53.5210003,57.6374026 L62.0454007,57.6374026 C60.7434923,53.4812751 59.4222102,49.0486068 59.2788453,48.2350157 C58.9998649,46.6559278 58.8913725,41.9707657 57.1283715,38.6843389 C55.3653706,35.3979121 51.2194122,34.0953649 51.2194122,34.0953649 C44.3572699,34.4159919 47.0579549,40.038988 47.0579549,40.038988 Z" id="Path" fill="#6AA5FE"></path>
                    <path d="M24.5957221,49.00527 C24.5957221,49.00527 25.990563,53.4326161 27.3405405,57.6374026 L56.5914139,57.6374026 C56.7137684,57.2677947 56.8646722,56.8783154 57.0482039,56.4451191 C59.189407,51.6163709 60.2294199,47.5029928 59.189407,44.7567664 C58.149394,42.0105401 52.2152026,34.499154 50.6816934,34.2010831 C49.1481841,33.9030122 44.747502,31.8761303 44.747502,31.8761303 C41.8680936,31.4787024 37.7732977,31.6654935 36.3662213,32.1424069 C34.959145,32.6193203 27.1203025,33.3943046 24.2449726,35.5722092 C20.9332452,38.0998502 24.5957221,49.00527 24.5957221,49.00527 Z" id="Path" fill="#EDDAD3"></path>
                    <path d="M45.0727272,41.4015145 L48.1668242,38.2764113 L45.4783558,30.0363929 C44.8844162,33.8022185 44.7484677,37.6112975 45.0727272,41.4015145 L45.0727272,41.4015145 Z" id="Path" fill="#D6C5BE"></path>
                    <path d="M46.5340505,26.8891477 C46.5340505,26.8891477 45.6461901,34.6438329 45.8320213,37.1415675 C45.8320213,37.1415675 41.1944993,41.5360192 35.9210214,32.017309 C35.9210214,32.017309 38.1427373,28.1145987 36.470256,22.7483722 C34.7977748,17.3821457 46.5340505,26.8891477 46.5340505,26.8891477 Z" id="Path" fill="#EEA886"></path>
                    <polygon id="Path" fill="#EEA886" points="45.7176637 37.3425425 45.7176637 41.4015145 40.8193426 37.5912928"></polygon>
                    <polygon id="Path" fill="#D6C5BE" points="45.7176637 41.4015145 43.62149 38.7774262 36.5678853 31.6599817 34.2882477 33.8849241"></polygon>
                    <path d="M22.042445,41.3471378 C22.042445,41.3471378 23.2978772,46.0435692 26.6915939,57.6599817 L41.8053778,57.6599817 C42.2711026,51.5288702 42.5343384,46.6812048 42.4290441,45.2056506 C42.1334101,41.0651067 35.9898918,31.6599817 35.9898918,31.6599817 C35.9898918,31.6599817 32.1628485,32.1259462 28.0644698,33.0251759 C23.3667235,34.0511152 22.042445,41.3471378 22.042445,41.3471378 Z" id="Path" fill="#6AA5FE"></path>
                    <path d="M46.5340505,32.4717761 C51.0440396,37.0181961 52.6432574,47.0112764 52.8967919,57.6374026 L56.9435929,57.6374026 C61.6388572,49.3543681 60.3809359,45.5972001 60.3809359,45.5972001 C57.943104,38.5227075 50.6296082,33.4912265 50.6296082,33.4912265 L46.5340505,32.4717761 Z" id="Path" fill="#6AA5FE"></path>
                    <polygon id="Path" fill="#FAE6DE" points="48.0476948 37.2506617 51.4323716 38.1543369 45.7176637 29.2245985"></polygon>
                    <polygon id="Path" fill="#FAE6DE" points="43.2685031 38.1793421 40.3193544 42.2133089 34.2882477 31.6826608 36.2100771 30.8481873"></polygon>
                    <path d="M45.7176637,28.4961887 L45.5463665,30.0104326 C45.5463665,30.0104326 41.7350039,30.6842906 36.7374083,25.1656265 C36.7374083,25.1656265 40.2789778,29.0809734 45.7176637,28.4961887 Z" id="Path" fill="#A77860"></path>
                    <path d="M45.5856818,28.4097378 C47.0720969,28.3579476 51.2146346,27.8998032 53.2584554,18.8962705 C55.7583354,7.89283805 50.2391747,2.20388021 45.5138947,1.12823692 C40.7886148,0.0525936333 36.4307158,1.6182522 34.0110685,7.38290345 C34.0110685,7.38290345 32.2417277,11.8647505 35.1132115,19.8523979 C37.9846953,27.8400453 43.9979202,28.4655119 45.5856818,28.4097378 Z" id="Path" fill="#EEA987"></path>
                    <path d="M42.2558866,7.90819202 C42.2558866,7.90819202 48.0246253,8.27218747 53.4087814,16.4875256 C53.4087814,16.4875256 55.9239515,6.60485347 49.3514352,2.09600661 C42.7789189,-2.41284025 38.1754654,1.46195002 36.5717561,3.43065659 C36.5717561,3.43065659 34.2642606,3.96686495 34.1988816,8.409175 C34.1335025,12.8514851 31.1914458,19.5677882 37.6293582,22.7302433 C37.6293582,22.7302433 37.0140261,17.6421348 37.5832083,16.4992674 C38.1523905,15.3564 40.1252991,16.1235302 42.2558866,7.90819202 Z" id="Path" fill="#163342"></path>
                    <path d="M36.3576296,15.3550672 C36.1420319,14.5758181 35.5576487,14.2835996 35.222905,15.1018112 C34.8881612,15.9200228 35.2853148,19.1032556 36.1448687,19.4539177 C37.0044226,19.8045798 36.7944985,16.905773 36.3576296,15.3550672 Z" id="Path" fill="#EEA987"></path>
                    <path d="M14.6949633,57.6599817 L25.0155169,57.6599817 C26.101224,55.0438976 27.1277874,52.730947 27.7868158,51.0657887 C30.021598,45.5346394 38.9142568,35.1408957 33.2449228,31.6735461 C33.2449228,31.6735461 25.8181797,31.2250745 22.0963591,35.4855544 C18.3745385,39.7460342 18.5730919,44.8037969 17.6267948,47.000477 C16.9212964,48.6282627 15.5525451,54.2383098 14.6949633,57.6599817 Z" id="Path" fill="#6AA5FE"></path>
                </g>
                <g id="Group-35-Copy" transform="translate(103.000000, 0.000000)" fill-rule="nonzero">
                    <rect id="Rectangle" stroke="#C8DBF4" stroke-width="0.5" fill="url(#linearGradient-2)" opacity="0.95" x="1.48803152e-13" y="5.29378189" width="71.0521428" height="85.362233" rx="9.97272"></rect>
                    <rect id="Rectangle" fill="#4598E6" x="32.8945106" y="55.5847099" width="5.26312169" height="1.32344547"></rect>
                    <rect id="Rectangle" fill="#96BFE6" x="10.5262434" y="64.8488282" width="33.5524008" height="2.64689095"></rect>
                    <rect id="Rectangle" fill="#96BFE6" x="10.5262434" y="74.7746692" width="26.9734987" height="2.64689095"></rect>
                    <rect id="Rectangle" fill="#96BFE6" x="10.5262434" y="70.1426101" width="16.4472553" height="2.64689095"></rect>
                    <path d="M52.1520789,13.8961775 L52.1520789,14.9317944 L58.1844826,14.9317944 L58.1844826,20.6486579 L59.2069239,20.6486579 L59.2069239,13.8961775 L52.1520789,13.8961775 Z M11.1841336,20.6486579 L12.20977,20.6486579 L12.20977,14.9317944 L18.2453689,14.9317944 L18.2453689,13.8961775 L11.1841336,13.8961775 L11.1841336,20.6486579 Z M58.1844826,50.1524486 L58.1844826,55.8725384 L52.1520789,55.8725384 L52.1520789,56.9081553 L59.210119,56.9081553 L59.210119,50.1524486 L58.1844826,50.1524486 Z M12.2065749,50.1524486 L11.1841336,50.1524486 L11.1841336,56.9081553 L18.2453689,56.9081553 L18.2453689,55.8725384 L12.20977,55.8725384 L12.2065749,50.1524486 Z" id="Shape" fill="#4598E6"></path>
                    <path d="M56.2496131,78.0832829 C52.7978571,78.0832829 49.9996561,75.268781 49.9996561,71.7969169 C49.9996561,68.3250528 52.7978571,65.5105509 56.2496131,65.5105509 C59.701369,65.5105509 62.4995701,68.3250528 62.4995701,71.7969169 C62.495921,75.2672595 59.6998564,78.0796125 56.2496131,78.0832829 Z M56.2496131,66.7258706 C53.4651722,66.7258706 51.2079369,68.9962554 51.2079369,71.7969169 C51.2079369,74.5975784 53.4651722,76.8679632 56.2496131,76.8679632 C59.0340539,76.8679632 61.2912892,74.5975784 61.2912892,71.7969169 C61.2894632,68.9970165 59.0332972,66.7277072 56.2496131,66.7258706 Z" id="Shape" fill="#4598E6"></path>
                    <polygon id="Path" fill="#4598E6" points="55.8850336 74.1129465 53.2891071 71.1842016 54.072726 70.3035301 55.8850336 72.34819 58.4295257 69.4808873 59.210119 70.3615589"></polygon>
                    <path d="M34.936486,0.0187971597 C34.936486,0.0187971597 40.5954299,-0.573215426 42.6349806,4.88753455 C44.6745313,10.3482845 46.5942988,12.1372624 46.8435773,15.0067442 C47.8147919,26.6140729 53.2406442,23.9872193 51.6996503,30.677285 C50.1586565,37.3673507 49.1097447,38.3799187 49.1097447,38.3799187 L36.1602164,35.8404112 L23.0261574,35.8824667 C23.0261574,35.8824667 28.1638827,33.3170788 27.0210869,27.8563289 C25.878291,22.3955789 23.0261574,13.4409841 24.6351363,7.34293101 C26.2441152,1.24487787 31.5566591,0.484643129 34.936486,0.0187971597 Z" id="Path" fill="#0E2D3D"></path>
                    <path d="M57.8943386,47.644037 L13.8156944,47.644037 C15.9454234,42.1342199 18.033393,37.0003667 18.6340858,36.3715993 C19.8997166,35.03952 26.1282905,30.8617822 31.3578513,29.2055959 C36.587412,27.5494097 39.5555411,29.1472567 39.5555411,29.1472567 C39.5555411,29.1472567 49.2597813,31.8956831 53.3875365,36.3910457 C54.5343137,37.6485805 56.3042695,42.5685231 57.8943386,47.644037 Z" id="Path" fill="#FFC957"></path>
                    <path d="M37.880643,22.3623565 C37.880643,22.3623565 37.4288664,28.3704105 38.5214608,30.1711052 C39.6140551,31.9718 37.6018872,34.4128947 33.4846329,33.5796861 C29.3673785,32.7464774 29.6076852,30.2330794 29.6076852,30.2330794 C29.6076852,30.2330794 30.7579532,26.5249567 30.4215238,23.5570813 C30.0850945,20.5892058 37.880643,22.3623565 37.880643,22.3623565 Z" id="Path" fill="#EEA886"></path>
                    <path d="M40.7891931,29.2314315 C40.7891931,29.2314315 37.0973809,37.8468716 32.3161815,39.7033642 C32.3161815,39.7033642 27.2196331,35.5270773 28.4937702,29.1295708 C28.4873995,29.1295708 34.9568306,26.0540362 40.7891931,29.2314315 Z" id="Path" fill="#EEA886"></path>
                    <path d="M34.7894947,3.37035661 C34.7894947,3.37035661 42.4572347,4.4565853 41.3348842,15.5627858 C40.2125336,26.6689863 33.4453227,25.7974016 32.9950581,25.7876451 C32.5447936,25.7778886 26.2079825,26.01855 25.658395,12.4537001 C25.658395,12.4634567 25.4034658,2.43372828 34.7894947,3.37035661 Z" id="Path" fill="#EEA886"></path>
                    <path d="M34.2116874,7.72822487 C34.2116874,7.72822487 37.6089288,11.3636647 39.1850981,13.2037468 C40.7612674,15.0438288 40.9433746,18.5962094 40.9433746,18.5962094 C40.9433746,18.5962094 43.6027678,15.2930066 42.4912859,11.446724 C41.379804,7.60044139 38.7486687,0.11552432 32.0923362,2.41562688 C25.4360037,4.71572943 25.1848213,14.8329861 25.9697662,19.8516821 C25.9697662,19.8516821 28.9588363,8.77604936 34.2116874,7.72822487 Z" id="Path" fill="#0E2D3D"></path>
                    <path d="M31.5787301,24.9440164 C33.5571181,26.0507957 35.8390571,25.6183814 37.499742,23.8220185 C37.499742,23.8220185 36.355944,26.3240346 34.3594964,26.4608636 C32.3630488,26.5976926 31.5787301,24.9440164 31.5787301,24.9440164 Z" id="Path" fill="#A77860"></path>
                </g>
                <g id="Group-36-Copy" transform="translate(200.000000, 60.000000)" fill-rule="nonzero">
                    <rect id="Rectangle" stroke="#C8DBF4" stroke-width="0.5" fill="url(#linearGradient-3)" opacity="0.95" transform="translate(37.961989, 53.509442) rotate(-180.000000) translate(-37.961989, -53.509442) " x="-7.03437308e-13" y="15.3544423" width="75.9239771" height="76.31" rx="11.664"></rect>
                    <rect id="Rectangle" fill="#4598E6" x="33.4718609" y="64.5556604" width="6.53109481" height="1.63432052"></rect>
                    <path d="M9.79664221,21.9775257 L9.79664221,29.5274857 L10.9640856,29.5274857 L10.9640856,23.129888 L17.8328104,23.129888 L17.8328104,21.9775257 L9.79664221,21.9775257 Z M64.4945612,21.9775257 L56.4543949,21.9775257 L56.4543949,23.129888 L63.3271179,23.129888 L63.3271179,29.5394067 L64.4945612,29.5394067 L64.4945612,21.9775257 Z M9.79664221,62.616179 L9.79664221,70.189981 L17.8328104,70.189981 L17.8328104,69.0296713 L10.9640856,69.0296713 L10.9640856,62.616179 L9.79664221,62.616179 Z M63.3271179,69.0296713 L56.4543949,69.0296713 L56.4543949,70.189981 L64.4945612,70.189981 L64.4945612,62.616179 L63.3271179,62.616179 L63.3271179,69.0296713 Z" id="Shape" fill="#4598E6"></path>
                    <path d="M13.0621896,58.1207309 L22.144066,58.1207309 C22.2697957,57.3569628 22.3829524,56.5849821 22.4793452,55.8253202 L22.4793452,55.8253202 C23.0828478,51.1852236 23.2337235,46.9475425 23.2337235,46.9475425 C23.2337235,46.9475425 25.8824294,35.0393299 18.2045349,34.3207309 C18.2045349,34.3207309 16.1551406,34.953098 16.0336019,35.7784603 C15.5725929,38.9567212 14.5122723,45.8306343 14.4661714,47.4567212 C14.4619804,48.2985086 13.6615013,53.9733879 13.0621896,58.1207309 Z" id="Path" fill="#05355F"></path>
                    <path d="M17.9605107,35.0768025 C18.0678553,38.2448298 18.2570503,41.6444692 18.5280954,45.2757206 C18.5280954,45.2757206 18.894409,51.2017952 19.0191971,57.9824386 L50.0149581,57.9824386 C50.7355089,54.64403 51.544619,51.684986 51.6452546,51.313608 L51.6452546,51.313608 C51.6452546,51.313608 51.6452546,51.313608 51.6452546,51.313608 L51.6452546,51.313608 C51.6452546,51.313608 52.3416529,54.6480233 52.8971613,58.0183784 L60.412627,58.0183784 C59.4827541,50.6107851 57.1922882,34.1823006 55.9846611,33.3277319 C54.9622036,32.6009492 48.5336022,30.0452297 45.2005516,28.7913298 C44.2384163,28.3934372 43.2514948,28.0573061 42.2458907,27.7850152 C41.4850857,27.7410888 32.0816964,28.6355906 32.0816964,28.6355906 C32.0816964,28.6355906 30.7331795,29.0908282 29.3605101,29.7217714 C27.0056373,30.7879857 23.3425019,32.4611833 20.7139004,33.7150832 C19.9047903,34.0704879 18.8420785,34.6135783 17.9605107,35.0768025 Z" id="Path" fill="#D8D5E0"></path>
                    <path d="M42.4521163,27.2387427 C41.7795689,33.5035706 34.6773072,33.5035706 34.6773072,33.5035706 C34.6773072,33.5035706 31.74808,30.9848866 31.8412642,29.1197852 C31.8412642,29.0799326 31.8412642,29.04008 31.8412642,29.0002274 C31.8817791,28.6574951 32.2788251,28.2270871 32.31934,27.5416224 C32.31934,27.4459762 32.31934,27.35033 32.31934,27.2546837 C32.31934,27.1590375 32.31934,27.0673765 32.31934,26.9757156 C32.31934,26.5014697 32.2909796,26.0312091 32.2626192,25.7004325 C32.2626192,25.5888453 32.2423617,25.4892138 32.2342588,25.4134939 C32.2261558,25.3377739 32.2342588,25.2301719 32.2342588,25.2301719 C32.2342588,25.2301719 33.3767789,24.0345941 34.8231608,22.6397532 C37.3593935,20.1728776 40.8436748,17.0165521 40.8517777,18.2559678 C40.8491467,18.3352262 40.8382863,18.4140124 40.8193658,18.4910981 C40.2116423,21.3365734 42.4521163,27.2387427 42.4521163,27.2387427 Z" id="Path" fill="#EEA886"></path>
                    <path d="M38.0722008,30.2349296 L35.1046346,33.5035706 C35.1046346,33.5035706 38.5334594,33.2202209 39.1865688,32.5169065 L38.0722008,30.2349296 Z" id="Path" fill="#B4B1BA"></path>
                    <path d="M17.9605107,34.5782944 C18.0601324,37.8778786 18.2095649,41.4186964 18.4739455,45.2089251 C18.4739455,45.2089251 18.6310412,51.1947879 18.9528959,58.1006091 L24.8305747,58.1006091 C25.4474627,53.2391399 26.0796772,48.8764926 26.4819955,45.8712951 C28.0567843,34.1244483 30.1450078,28.7641572 30.2063135,28.6006091 L29.0568326,29.1280519 C28.3288281,29.4796804 27.4743806,29.8967283 26.5662908,30.3546631 C24.6504893,31.2950651 22.5162865,32.3581281 20.8188865,33.216756 C19.9299546,33.6542473 18.8034634,34.1898675 17.9605107,34.5782944 Z" id="Path" fill="#05355F"></path>
                    <path d="M36.1008768,58.0183784 L50.0539903,58.0183784 C50.237615,56.1566343 50.5375815,54.3079121 50.9521697,52.4828126 C50.9521697,52.4828126 51.5579187,54.9407691 52.1135367,58.0183784 L61.2290138,58.0183784 C60.2598155,49.541527 58.2796431,33.5214345 57.0973883,32.6869686 C56.1992088,32.0466606 49.5317929,29.7126348 46.2649262,28.4402809 C45.6675324,28.2048128 45.086849,27.9858687 44.5521189,27.7834488 C43.8586408,28.5476874 36.5061019,41.9982859 35.9337736,52.9330937 C35.8933264,54.6299446 35.949115,56.3277035 36.1008768,58.0183784 L36.1008768,58.0183784 Z" id="Path" fill="#05355F"></path>
                    <path d="M31.028095,30.6909134 C31.028095,30.6909134 30.7563952,34.2356921 34.0693808,34.3189587 C37.3823665,34.4022253 40.0029557,31.5235795 40.0029557,31.5235795 L34.5119887,32.8003343 L31.163945,30.2349296 L31.028095,30.6909134 Z" id="Path" fill="#D8D5E0"></path>
                    <path d="M41.817963,25.331968 C41.817963,25.331968 39.0194807,29.0073733 37.5537951,30.20987 L39.953611,34.3207309 L44.08489,27.1297206 L41.817963,25.331968 Z" id="Path" fill="#EAE6F2"></path>
                    <path d="M32.655474,31.4203567 L35.9210214,33.5035706 C35.9210214,33.5035706 33.0542039,28.9884878 32.9986846,26.9662885 L32.655474,31.4203567 Z" id="Path" fill="#B4B1BA"></path>
                    <polygon id="Path" fill="#EAE6F2" points="31.8390872 27.7834488 30.2918574 28.9283524 28.5735398 34.3207309 31.5861746 31.7652124"></polygon>
                    <path d="M24.2899637,9.44823678 C24.2899637,9.44823678 22.4853457,13.9101545 23.6646794,14.4488004 C24.6382233,14.8949922 23.0750125,19.2523965 22.8731802,19.955852 C22.671348,20.6593075 24.6580108,20.9487292 25.1131228,21.3386446 C25.5682348,21.7285599 27.3332779,26.9662885 28.9360636,26.9662885 C30.5388494,26.9662885 37.4169769,23.6700971 39.15036,21.411 C40.8837431,19.1519029 41.5248574,9.70148076 39.8152193,5.92693955 C38.1055811,2.15239834 27.4836627,1.63787089 24.2899637,9.44823678 Z" id="Path" fill="#EEA886"></path>
                    <path d="M23.8654816,10.0221657 C23.8654816,10.0221657 20.9952478,5.497086 24.9479698,1.48602835 C28.9006917,-2.52502929 37.47449,2.83849632 38.3929648,2.98174838 C39.3114396,3.12500044 44.7033788,4.30472327 42.9033322,12.731315 C41.3083023,20.2351949 41.1565899,20.4290065 41.1565899,20.4290065 C41.1565899,20.4290065 39.0162156,16.4642951 38.0116338,15.8702204 C36.4453062,14.939082 33.2839487,15.5457966 33.2839487,15.5457966 C33.2839487,15.5457966 34.3787379,11.2355949 31.9431395,10.9111712 C29.5075411,10.5867474 26.1739696,8.8424429 23.8654816,10.0221657 Z" id="Path" fill="#0E2D3D"></path>
                    <path d="M35.3881736,12.8035219 C35.5144276,12.2207075 35.8693034,9.7530466 37.6880422,10.943476 C39.506781,12.1339054 37.1454916,17.0072257 36.8554488,17.1022948 C36.5654061,17.1973638 34.3269583,17.6809757 35.3881736,12.8035219 Z" id="Path" fill="#EEA886"></path>
                    <path d="M39.1865688,21.2461667 C39.1390412,21.3785897 37.5666678,25.6381962 32.7386497,27.7834488 C32.7386497,27.6819245 32.7386497,27.5759861 32.7386497,27.4744618 C32.7386497,26.9491839 32.7109252,26.4283201 32.6832008,26.0619498 C32.6832008,25.938355 32.6633976,25.8280025 32.655474,25.7441346 C32.6515157,25.7441346 37.8320306,23.0294631 39.1865688,21.2461667 Z" id="Path" fill="#A77860"></path>
                    <rect id="Rectangle" fill="#96BFE6" x="18.7768976" y="73.9101028" width="35.9210214" height="1.63432052"></rect>
                    <rect id="Rectangle" fill="#96BFE6" x="24.4916055" y="79.4473848" width="25.3079924" height="1.63432052"></rect>
                </g>
                <g id="Flowers-Copy" transform="translate(31.000000, 227.000000)">
                    <g id="Group-6" transform="translate(284.005305, 0.500000)">
                        <path d="M23.4248023,39.5881629 C23.0981823,46.0374501 16.0632899,57.3190022 9.60626375,56.9930907 C3.14923757,56.6671792 -0.305397065,44.8591547 0.0212229368,38.4098674 C0.347842938,31.9605802 7.21942528,-0.323461234 13.6890138,0.00245026928 C20.1586023,0.328361773 23.7765469,33.1388756 23.4248023,39.5881629 Z" id="Path" fill="#6AA5FE" fill-rule="nonzero"></path>
                        <line x1="14.4297082" y1="4.453125" x2="10.8222812" y2="56.109375" id="Path" stroke="#1A55B5" stroke-width="0.87" stroke-linecap="round" stroke-linejoin="round"></line>
                        <path d="M8.98593904,38.3076271 C7.49597002,41.5335156 6.3990439,44.925333 5.71855341,48.4107462 C5.37362786,50.1903439 5.16040116,52.1198023 5.96940835,53.7495391 C6.85367202,55.5228925 8.81661195,56.5594301 10.7795519,56.8716402 C15.5771527,57.6584097 20.3810248,54.7298788 23.1906002,50.7835431 C26.0001755,46.8372073 27.2481789,42.0541484 28.3393979,37.3147989 C29.2173902,33.6057428 30.0828397,29.8217563 31.7447537,26.3812009 C32.4534189,24.901325 36.617611,19.1816358 34.6483997,17.6955157 C31.951709,15.5912195 24.1563917,17.8828417 19.158107,23.3152976 C14.9980899,27.7501825 11.5653341,32.8095764 8.98593904,38.3076271 L8.98593904,38.3076271 Z" id="Path" fill="#FFC957" fill-rule="nonzero"></path>
                        <path d="M10.8222812,57 C10.8222812,57 16.6348824,34.3329799 30.66313,21.375" id="Path" stroke="#6AA5FE" stroke-width="0.87" stroke-linecap="round" stroke-linejoin="round"></path>
                        <path d="M42.9806544,32.4172961 C42.4038895,33.2607008 41.6059895,33.9372211 40.6703208,34.3761725 C39.610886,34.9563493 38.4876299,35.467903 37.3962845,35.9669798 C35.9584375,36.5846763 34.5621919,37.2910451 33.2159848,38.0818178 C32.2887138,38.6482322 31.4320035,39.3181712 30.66313,40.078125 C31.7130364,37.6744357 33.0635726,35.4071606 34.6838763,33.3281112 C36.7644529,30.7141965 38.8960867,29.3916429 41.0277204,29.3916429 L41.1745096,29.3916429 C41.7232643,29.3759026 42.2611735,29.5431025 42.6998403,29.8657659 C43.3647465,30.5600441 43.4792741,31.6006643 42.9806544,32.4172961 L42.9806544,32.4172961 Z" id="Path" fill="#1A55B5" fill-rule="nonzero"></path>
                        <path d="M45.0109858,47.9819085 C44.1311569,48.5408283 43.1256387,48.8388756 42.0997352,48.8448371 C40.8998705,48.9317989 39.6684304,48.9251096 38.4811958,48.9184202 C36.9257716,48.8699067 35.3690135,48.9280024 33.8206687,49.0923438 C32.7429224,49.2217737 31.6831925,49.484448 30.66313,49.875 C32.6593866,48.0170293 34.8654461,46.4284468 37.2308105,45.145616 C40.2178421,43.5468567 42.6996675,43.2190776 44.6068209,44.1756574 L44.7394375,44.2425511 C45.2384799,44.4699432 45.6471262,44.874425 45.8950967,45.3864333 C46.186064,46.3637772 45.8240503,47.4265373 45.0109858,47.9819085 L45.0109858,47.9819085 Z" id="Path" fill="#1A55B5" fill-rule="nonzero"></path>
                        <path d="M39.7623218,55.1887776 C39.0556161,55.0291988 38.4034793,54.6766938 37.874135,54.1681399 C37.2230361,53.610818 36.5719372,52.9930637 35.9794372,52.4021682 C35.206898,51.6026256 34.3847801,50.8557169 33.5182834,50.166166 C32.9138232,49.6954554 32.2583187,49.2988596 31.5649867,48.984375 C33.4351772,49.0498585 35.2900522,49.3566467 37.0863053,49.8975771 C39.3521295,50.5690493 40.771525,51.6568341 41.3119371,53.0870698 L41.351003,53.1877906 C41.5010223,53.5509378 41.5262903,53.9560312 41.4226239,54.336008 C41.1217627,54.9767061 40.4394274,55.3271693 39.7623218,55.1887776 L39.7623218,55.1887776 Z" id="Path" fill="#1A55B5" fill-rule="nonzero"></path>
                        <path d="M23.4482759,57 C23.4482759,57 23.5180863,43.5169575 40.5835544,32.0625" id="Path" stroke="#2A294F" stroke-width="0.78" stroke-linecap="round" stroke-linejoin="round"></path>
                        <path d="M23.4482759,57 C23.4482759,57 28.5510415,46.3125 42.3872679,46.3125" id="Path" stroke="#2A294F" stroke-width="0.78" stroke-linecap="round" stroke-linejoin="round"></path>
                        <path d="M31.5649867,48.095363 C31.5649867,48.095363 34.1936597,47.8762116 39.6816976,52.546875" id="Path" stroke="#2A294F" stroke-width="0.78" stroke-linecap="round" stroke-linejoin="round"></path>
                    </g>
                    <g id="Group-5" transform="translate(0.000000, 0.500000)">
                        <path d="M43.1238941,37.8412899 C40.9442024,35.3314392 38.1866098,33.1415945 37.3197584,29.9540842 C36.6916052,27.6261978 37.1815647,25.1602695 37.4328259,22.7633621 C37.6840872,20.3664548 37.5898643,17.7060131 36.0446073,15.8612729 C34.7883009,14.3428132 32.759366,13.6777028 30.8246541,13.2635775 C28.8899422,12.8494521 26.8672888,12.5796432 25.1712751,11.5882522 C22.3822748,9.98194775 22.9350497,7.25248518 21.440045,4.85557782 C19.7063421,2.1386645 15.7992291,-1.29355626 12.4511725,0.494712326 C8.90210678,2.37710031 9.46116314,8.1309329 11.8230192,10.6658821 C13.3871208,12.347482 15.3972111,13.960061 15.5919386,16.2502997 C15.9374228,19.7013444 12.0051837,22.8072845 13.0793257,26.1014635 C13.8833618,28.529744 16.9299049,29.370544 18.4374726,31.4348961 C19.9450404,33.4992483 19.6309637,36.3416541 18.7515492,38.713463 C17.8721347,41.0852718 16.4901977,43.2876658 15.9437044,45.7598686 C14.8569993,50.8234923 18.8206461,54.3184593 23.3245047,55.4478921 C27.4640344,56.4832055 36.3900916,55.9937846 36.3900916,55.9937846 C39.9080056,54.6555155 42.8847578,52.193792 44.857597,48.9913013 C46.1836804,46.6206399 46.3593264,43.7764566 45.3349934,41.2609614 C44.7849224,40.0107523 44.0384884,38.8563225 43.1238941,37.8412899 Z" id="Path" fill="#FFC957" fill-rule="nonzero"></path>
                        <path d="M16.2334218,6.234375 C16.2334218,6.234375 31.6870224,29.8646547 33.3687003,56.109375" id="Path" stroke="#6AA5FE" stroke-linecap="round" stroke-linejoin="round"></path>
                        <path d="M3.06735494,38.6152775 C3.34880115,38.3991749 3.69525747,38.2870211 4.04883779,38.2975548 L4.13971583,38.2975548 C5.50894499,38.2975548 6.87817416,39.1774022 8.2110521,40.9187669 C9.26041495,42.3067129 10.1373474,43.8189976 10.8222812,45.421875 C10.3345058,44.9249838 9.79173702,44.4862566 9.20465202,44.114324 C8.34017766,43.5894754 7.44375623,43.1201073 6.52072052,42.7090121 C5.82398887,42.3790693 5.09696454,42.0369064 4.41840849,41.6458631 C3.81666652,41.3569194 3.30527142,40.9067007 2.94012568,40.3444221 C2.58510857,39.8066096 2.63751579,39.0943546 3.06735494,38.6152775 L3.06735494,38.6152775 Z" id="Path" fill="#6AA5FE" fill-rule="nonzero"></path>
                        <path d="M0.0754723623,48.454182 C0.25152416,48.0909044 0.540806657,47.8036626 0.894025367,47.6414033 L0.986442642,47.5923563 C2.30668942,46.8916849 4.08242135,47.1439266 6.20141743,48.2930276 C7.86800907,49.2048346 9.42038989,50.3347104 10.8222812,51.65625 C10.1011643,51.3795254 9.35253878,51.1914521 8.59106411,51.0957129 C7.49431536,50.9823382 6.39191809,50.9425544 5.29044715,50.9765988 C4.44548921,50.9765988 3.58072757,50.9765988 2.72916839,50.9205451 C2.00521425,50.9203186 1.29516544,50.7094867 0.676184648,50.310961 C0.108549061,49.9032323 -0.136420515,49.1460405 0.0754723623,48.454182 Z" id="Path" fill="#6AA5FE" fill-rule="nonzero"></path>
                        <path d="M3.64883459,54.6142533 C3.58145258,54.3420431 3.59665193,54.051448 3.69191715,53.7905616 C3.69089073,53.7669071 3.69089073,53.7432082 3.69191715,53.7195537 C4.03657763,52.6899391 4.92284744,51.915953 6.39380913,51.4188977 C7.54157599,51.0345791 8.7260678,50.815163 9.9204244,50.765625 C9.47283121,50.9926811 9.04945955,51.2786063 8.65872086,51.6177198 C8.1208817,52.1146626 7.61106231,52.6506769 7.1323673,53.2224984 C6.74462426,53.6485458 6.34457192,54.0958956 5.90143702,54.4935398 C5.5537611,54.853334 5.12859524,55.0985968 4.67050673,55.2036189 C4.25528694,55.2829434 3.84296246,55.0450884 3.64883459,54.6142533 L3.64883459,54.6142533 Z" id="Path" fill="#6AA5FE" fill-rule="nonzero"></path>
                        <path d="M15.331565,56.109375 C15.331565,56.109375 15.2609763,46.9721745 3.60742706,39.1875" id="Path" stroke="#2A294F" stroke-width="0.78" stroke-linecap="round" stroke-linejoin="round"></path>
                        <path d="M14.4297082,56.109375 C11.9356237,51.6134072 7.05550057,48.8611361 1.80371353,48.9886201" id="Path" stroke="#2A294F" stroke-width="0.78" stroke-linecap="round" stroke-linejoin="round"></path>
                        <path d="M9.9204244,50.7667954 C9.9204244,50.7667954 8.15879752,50.5975919 4.50928382,54.328125" id="Path" stroke="#2A294F" stroke-width="0.78" stroke-linecap="round" stroke-linejoin="round"></path>
                    </g>
                </g>
            </g>
        </g>
    </g>
</svg>